<?xml version="1.0" encoding="utf-8"?>
<!-- Generator: Adobe Illustrator 19.1.0, SVG Export Plug-In . SVG Version: 6.00 Build 0)  -->
<svg version="1.1" id="Layer_1" xmlns="http://www.w3.org/2000/svg" xmlns:xlink="http://www.w3.org/1999/xlink" x="0px" y="0px"
	 viewBox="-751 1009 32 32" style="enable-background:new -751 1009 32 32;" xml:space="preserve">
<style type="text/css">
	.st0{fill:#1164A6;}
</style>
<path class="st0" d="M-733.3,1027.3l1.1-4.6h-4.5l-1.1,4.6H-733.3z M-719.6,1018.3l-1,4c-0.1,0.3-0.3,0.4-0.6,0.4h-5.8l-1.1,4.6h5.6
	c0.2,0,0.3,0.1,0.4,0.2c0.1,0.2,0.2,0.3,0.1,0.5l-1,4c-0.1,0.3-0.2,0.4-0.6,0.4h-5.8l-1.4,5.9c-0.1,0.3-0.3,0.4-0.6,0.4h-4
	c-0.2,0-0.3-0.1-0.5-0.2c-0.1-0.1-0.1-0.3-0.1-0.5l1.4-5.6h-4.5l-1.4,5.9c-0.1,0.3-0.3,0.4-0.6,0.4h-4c-0.2,0-0.3-0.1-0.4-0.2
	c-0.1-0.1-0.1-0.3-0.1-0.5l1.4-5.6h-5.6c-0.2,0-0.3-0.1-0.4-0.2c-0.1-0.1-0.1-0.3-0.1-0.5l1-4c0.1-0.3,0.3-0.4,0.6-0.4h5.8l1.1-4.6
	h-5.6c-0.2,0-0.3-0.1-0.4-0.2c-0.1-0.2-0.2-0.3-0.1-0.5l1-4c0.1-0.3,0.2-0.4,0.6-0.4h5.8l1.4-5.9c0.1-0.3,0.3-0.4,0.6-0.4h4
	c0.2,0,0.3,0.1,0.4,0.2c0.1,0.1,0.1,0.3,0.1,0.5l-1.4,5.6h4.5l1.4-5.9c0.1-0.3,0.3-0.4,0.6-0.4h4c0.2,0,0.3,0.1,0.4,0.2
	c0.1,0.1,0.1,0.3,0.1,0.5l-1.4,5.6h5.6c0.2,0,0.3,0.1,0.4,0.2C-719.6,1017.9-719.6,1018.1-719.6,1018.3L-719.6,1018.3z"/>
</svg>
