<?xml version="1.0" encoding="utf-8"?>
<!-- Generator: Adobe Illustrator 19.1.0, SVG Export Plug-In . SVG Version: 6.00 Build 0)  -->
<svg version="1.1" id="Layer_1" xmlns="http://www.w3.org/2000/svg" xmlns:xlink="http://www.w3.org/1999/xlink" x="0px" y="0px"
	 viewBox="-751 1009 32 32" style="enable-background:new -751 1009 32 32;" xml:space="preserve">
<style type="text/css">
	.st0{fill:#1164A6;}
</style>
<path class="st0" d="M-746.7,1032.5c-2.3,0-4.3,1.9-4.3,4.3c0,2.3,1.9,4.2,4.3,4.2c2.4,0,4.3-1.9,4.3-4.2
	C-742.5,1034.4-744.4,1032.5-746.7,1032.5z M-751,1019.9v6.1c4,0,7.7,1.6,10.6,4.4c2.8,2.8,4.4,6.6,4.4,10.6h6.2
	C-729.9,1029.3-739.4,1019.9-751,1019.9z M-751,1009v6.1c14.2,0,25.8,11.6,25.8,25.9h6.2C-719,1023.4-733.4,1009-751,1009z"/>
</svg>
